<?xml version="1.0" standalone="no"?>
<!DOCTYPE svg PUBLIC "-//W3C//DTD SVG 20010904//EN"
 "http://www.w3.org/TR/2001/REC-SVG-20010904/DTD/svg10.dtd">
<svg version="1.0" xmlns="http://www.w3.org/2000/svg"
 width="256.000000pt" height="256.000000pt" viewBox="0 0 256.000000 256.000000"
 preserveAspectRatio="xMidYMid meet">
<metadata>
Created by potrace 1.14, written by Peter Selinger 2001-2017
</metadata>
<g transform="translate(0.000000,256.000000) scale(0.100000,-0.100000)"
fill="#000000" stroke="none">
<path d="M1226 2535 c-20 -14 -48 -37 -61 -53 -32 -36 -125 -168 -125 -178 0
-4 -6 -15 -14 -23 -18 -21 -116 -205 -116 -219 0 -6 8 -9 18 -8 9 2 42 7 73
10 53 7 59 10 90 54 46 64 79 91 110 92 22 0 30 -7 43 -40 9 -22 16 -53 16
-69 0 -35 23 -61 53 -62 24 -1 48 -5 85 -14 l25 -6 -7 148 c-6 146 -8 166 -27
251 -20 90 -61 142 -113 142 -7 0 -30 -11 -50 -25z"/>
<path d="M514 1793 c-64 -112 -137 -239 -195 -342 -15 -25 -70 -120 -122 -211
l-95 -165 24 -47 c13 -26 89 -159 168 -295 l144 -249 -11 -47 -10 -47 -47 0
c-49 0 -63 -9 -72 -46 -8 -30 15 -55 53 -58 18 -1 34 -7 36 -13 2 -5 -6 -49
-17 -97 -25 -110 -25 -132 1 -146 45 -25 80 4 93 76 21 117 39 172 56 177 22
6 34 -1 49 -31 10 -19 20 -22 72 -22 53 0 60 -2 55 -17 -5 -21 -18 -81 -17
-88 0 -2 -4 -18 -9 -35 -7 -25 -5 -35 11 -51 24 -24 61 -25 75 -1 6 9 19 49
28 87 10 39 19 78 22 87 5 16 27 17 265 17 l260 -1 -5 -40 c-3 -21 -8 -42 -10
-46 -2 -4 -7 -26 -11 -49 -5 -35 -3 -44 17 -57 53 -37 72 -18 102 101 l21 88
58 3 c50 3 59 6 69 27 12 26 30 33 66 27 25 -5 25 -2 8 -88 -3 -12 -9 -39 -15
-60 -19 -67 -14 -93 16 -105 53 -20 69 -1 93 108 35 160 26 147 103 148 76 1
90 11 90 56 0 39 -15 49 -80 49 -29 0 -53 3 -53 6 0 3 11 53 24 112 14 59 27
119 30 135 11 64 14 67 66 67 39 0 52 4 60 19 23 45 6 79 -44 83 -14 1 -26 6
-26 11 0 4 27 55 61 113 l60 105 -19 32 c-25 41 -68 120 -150 277 -88 170
-125 240 -218 412 l-79 148 -492 0 -491 0 -68 -117z m1184 -1355 c-11 -49 -12
-51 -31 -46 -13 2 -11 11 10 46 14 23 26 42 28 42 2 0 -1 -19 -7 -42z"/>
<path d="M2258 1845 c-2 -1 -37 -5 -78 -9 -128 -10 -265 -38 -338 -68 l-33
-13 51 -50 c48 -48 53 -50 108 -51 117 -3 123 -4 148 -29 l25 -25 -20 -37
c-10 -21 -31 -49 -45 -62 -14 -14 -26 -29 -26 -35 0 -22 66 -136 77 -134 7 2
52 39 100 83 256 231 299 377 123 414 -83 18 -89 19 -92 16z"/>
</g>
</svg>
